<svg xmlns="http://www.w3.org/2000/svg" width="131.438" height="137.172" viewBox="0 0 131.438 137.172">
  <g id="Group_40" data-name="Group 40" transform="translate(98.48 0.012) rotate(73)">
    <path id="Path_165" data-name="Path 165" d="M104.614,23.349a121.217,121.217,0,0,0,6-17.576C111.473,2.343,108.043.2,105.043.2,50.171,1.915,3.874,42.639.016,98.368c-.429,4.287,6,5.573,6.859,1.286h0a2.64,2.64,0,0,0,3-.429c22.72-11.574,45.44-16.29,65.16-33.866a112.2,112.2,0,0,0,27.007-36.438,3.25,3.25,0,0,0,.857-1.715A5.236,5.236,0,0,0,104.614,23.349Z" transform="translate(0.016 0.685)" fill="#3a6"/>
    <path id="Path_166" data-name="Path 166" d="M109.774.028c-24.864,3-51.87,6.859-72.018,23.577C15.893,41.61,5.176,71.189.032,98.2c-.429,2.572,2.572,3,3.858,1.286a2.072,2.072,0,0,0,3,0C16.322,88.336,30.04,85.336,42.9,79.763A78.729,78.729,0,0,0,66.477,63.9c18-17.147,29.579-39.867,45.44-58.729C113.632,3.029,112.346-.4,109.774.028ZM45.043,25.749c15-10.717,33.437-15,51.442-18C61.333,30.893,31.326,59.615,5.6,93.481,12.892,68.617,23.609,41.182,45.043,25.749ZM59.619,62.187c-11.574,9.86-27.436,13.718-40.3,21.005A328.893,328.893,0,0,1,99.486,11.6C87.054,29.178,75.908,48.469,59.619,62.187Z" transform="translate(0 0)" fill="#22804d"/>
  </g>
</svg>
