<svg xmlns="http://www.w3.org/2000/svg" width="1869.505" height="914" viewBox="0 0 1869.505 914">
  <g id="Group_10775" data-name="Group 10775" transform="translate(0.505 -156)">
    <path id="Path_27" data-name="Path 27" d="M802.1,173.445c20.351,101.064,43.664,158.914,119.56,182.339,98.422,30.377,99.4,217.42-37.761,235.13-71.718,9.257-120.516-8.1-159.7,40.534-69.881,86.747-123.365,21.195-133.3-18.984-36.73-148.551-123.365-108.26-188.5-190.3-38.361-48.293-.843-103.538,70.537-116.393,109.01-19.621,134.627-83.205,143.341-113.714C637.322,118.406,781.751,72.362,802.1,173.445Z" transform="translate(427.851 237.044)" fill="none" stroke="#F55589" stroke-miterlimit="10" stroke-width="1" opacity="0.5"/>
    <path id="Path_6" data-name="Path 6" d="M509.607,199.53c-1.049,103.088,34.669,99.471,110.547,122.9C718.575,352.8,728.732,683.45,591.575,701.159c-71.718,9.258-89.239-88.34-146.452-19.677-69.338,83.205-171.47,50.41-164.761-46.719,3.28-47.524,17.184-93.549-39.972-95.592C138.425,535.536,114.926,390.7,253.039,345.851c108.223-35.137,68.719-102.32,59.5-157.884C290.05,52.572,511.181,45.544,509.607,199.53Z" transform="translate(-156.639 154.327)" fill="none" stroke="#F55589" stroke-miterlimit="10" stroke-width="1" opacity="0.5"/>
    <circle id="Ellipse_5" data-name="Ellipse 5" cx="60" cy="60" r="60" transform="translate(303 778)" fill="#F55589" opacity="0.22"/>
    <ellipse id="Ellipse_12" data-name="Ellipse 12" cx="60" cy="60.5" rx="60" ry="60.5" transform="translate(1058 664)" fill="#F55589" opacity="0.06"/>
    <g id="Ellipse_6" data-name="Ellipse 6" transform="translate(797 878)" fill="none" stroke="#F55589" stroke-width="9" opacity="0.22">
      <circle cx="27" cy="27" r="27" stroke="none"/>
      <circle cx="27" cy="27" r="22.5" fill="none"/>
    </g>
    <g id="Ellipse_13" data-name="Ellipse 13" transform="translate(1815 1015)" fill="none" stroke="#F55589" stroke-width="9" opacity="0.22">
      <ellipse cx="27" cy="27.5" rx="27" ry="27.5" stroke="none"/>
      <ellipse cx="27" cy="27.5" rx="22.5" ry="23" fill="none"/>
    </g>
    <g id="Ellipse_9" data-name="Ellipse 9" transform="translate(785 308)" fill="none" stroke="#F55589" stroke-width="9" opacity="0.22">
      <ellipse cx="26.5" cy="27" rx="26.5" ry="27" stroke="none"/>
      <ellipse cx="26.5" cy="27" rx="22" ry="22.5" fill="none"/>
    </g>
    <g id="Ellipse_11" data-name="Ellipse 11" transform="translate(1416 240)" fill="none" stroke="#F55589" stroke-width="9" opacity="0.22">
      <circle cx="27" cy="27" r="27" stroke="none"/>
      <circle cx="27" cy="27" r="22.5" fill="none"/>
    </g>
    <g id="Ellipse_14" data-name="Ellipse 14" transform="translate(1803 528)" fill="none" stroke="#F55589" stroke-width="9" opacity="0.22">
      <ellipse cx="26.5" cy="27" rx="26.5" ry="27" stroke="none"/>
      <ellipse cx="26.5" cy="27" rx="22" ry="22.5" fill="none"/>
    </g>
    <g id="Ellipse_8" data-name="Ellipse 8" transform="translate(565 156)" fill="none" stroke="#F55589" stroke-width="9" opacity="0.22">
      <circle cx="27" cy="27" r="27" stroke="none"/>
      <circle cx="27" cy="27" r="22.5" fill="none"/>
    </g>
  </g>
</svg>
